<?xml version="1.0" standalone="no"?>
<!DOCTYPE svg PUBLIC "-//W3C//DTD SVG 20010904//EN"
 "http://www.w3.org/TR/2001/REC-SVG-20010904/DTD/svg10.dtd">
<svg version="1.0" xmlns="http://www.w3.org/2000/svg"
 width="663.000000pt" height="376.000000pt" viewBox="0 0 663.000000 376.000000"
 preserveAspectRatio="xMidYMid meet">

<g transform="translate(0.000000,376.000000) scale(0.100000,-0.100000)"
fill="#000000" stroke="none">
<path d="M4615 3649 c-121 -14 -197 -30 -290 -61 -49 -16 -94 -33 -100 -37 -5
-4 -26 -14 -45 -21 -105 -40 -293 -199 -376 -318 -68 -97 -131 -233 -154 -332
-4 -19 -13 -50 -19 -68 -5 -18 -13 -83 -17 -143 -6 -97 -9 -109 -25 -109 -12
0 -19 -7 -19 -20 0 -13 7 -20 19 -20 17 0 20 -11 26 -92 14 -174 90 -415 169
-531 55 -80 59 -95 43 -141 -64 -186 -77 -275 -77 -537 0 -228 10 -341 45
-519 9 -41 20 -100 26 -130 6 -30 15 -67 20 -83 l8 -27 -170 0 c-158 0 -169 1
-169 18 0 14 -14 24 -47 35 -27 9 -86 30 -133 47 -47 18 -101 36 -120 42 -39
12 -28 12 -385 -3 -143 -6 -404 -13 -579 -16 l-319 -5 7 23 c3 13 9 45 13 72
l6 47 421 0 c232 0 426 4 431 8 6 4 37 39 70 77 33 39 63 72 68 73 4 2 7 10 7
18 0 8 5 14 11 14 22 0 36 32 28 64 -9 39 -25 121 -49 261 -10 61 -24 135 -30
165 -6 30 -15 78 -20 105 -10 56 -35 187 -55 285 -7 36 -18 97 -25 135 -6 39
-18 102 -25 140 -7 39 -19 99 -25 135 -6 36 -17 94 -25 130 -7 36 -18 94 -24
130 -18 102 -41 219 -57 287 -8 34 -14 72 -14 84 0 12 -5 39 -12 60 l-11 39
-927 0 -928 0 -106 -112 -106 -112 0 -174 0 -175 37 -31 c39 -34 49 -62 82
-217 10 -48 21 -91 25 -98 4 -6 11 -32 15 -59 9 -46 40 -177 66 -277 8 -27 19
-75 25 -105 7 -30 18 -77 25 -105 7 -27 25 -102 39 -165 15 -63 33 -137 40
-165 30 -105 34 -140 26 -190 -5 -27 -16 -106 -25 -175 -33 -253 -38 -281 -52
-296 -12 -12 -73 -14 -364 -14 l-349 0 0 -200 0 -200 3175 0 3175 0 0 200 0
200 -335 0 -335 0 0 96 c0 155 -48 447 -95 574 -7 19 -19 55 -26 80 -7 25 -18
56 -25 70 -6 14 -16 36 -22 50 -15 37 -101 212 -115 235 -7 11 -22 35 -34 54
l-22 34 93 88 c110 104 206 232 262 349 69 144 119 315 136 465 12 116 4 317
-16 390 -23 83 -93 235 -108 235 -4 0 -8 7 -8 15 0 9 -36 53 -80 99 -143 149
-297 237 -530 303 -82 23 -131 32 -275 48 -142 16 -232 17 -340 4z m445 -77
c81 -14 221 -51 252 -68 14 -8 31 -14 38 -14 19 0 180 -82 180 -92 0 -4 5 -8
10 -8 23 0 200 -148 200 -167 0 -3 7 -11 15 -17 23 -18 103 -164 119 -220 39
-135 46 -178 46 -275 0 -162 -52 -399 -120 -546 -11 -22 -24 -51 -29 -65 -11
-25 -32 -61 -41 -70 -3 -3 -25 -34 -49 -70 -25 -36 -54 -75 -65 -88 -110 -122
-217 -204 -361 -277 -121 -61 -144 -70 -215 -89 -49 -13 -56 -13 -65 1 -56 85
-149 208 -194 256 -71 75 -194 168 -274 206 -124 59 -152 65 -297 66 l-135 0
-58 -39 c-31 -21 -74 -58 -95 -82 -20 -24 -41 -40 -47 -36 -35 25 -155 294
-155 348 0 10 6 11 26 4 71 -27 219 1 268 52 28 29 50 98 43 135 -3 15 -8 45
-12 65 -7 36 8 68 33 68 11 0 35 51 27 58 -15 15 -41 9 -50 -11 -15 -33 -75
-45 -232 -46 l-143 -1 0 84 c0 100 21 213 59 321 18 50 96 193 133 242 82 112
226 226 363 288 79 36 232 85 270 86 17 1 41 5 55 9 32 11 427 5 500 -8z
m-2457 -779 c10 -49 22 -113 28 -143 5 -30 16 -86 24 -125 20 -102 43 -221 55
-295 6 -36 18 -94 25 -130 8 -36 19 -96 25 -135 6 -38 18 -97 25 -130 7 -33
18 -91 25 -130 6 -38 18 -104 26 -145 31 -162 46 -237 55 -290 5 -30 16 -86
24 -125 42 -208 42 -187 -5 -236 -8 -9 -35 -40 -60 -69 l-45 -53 -6 34 c-11
56 -48 229 -64 299 -8 36 -20 94 -26 130 -6 36 -18 85 -25 109 -8 25 -14 56
-14 71 0 15 -6 46 -14 71 -7 24 -19 73 -25 109 -6 36 -18 94 -26 130 -32 138
-71 328 -84 412 -5 32 -12 62 -16 68 -3 5 -10 31 -15 58 -8 46 -33 171 -66
322 -9 41 -18 85 -20 98 l-4 22 -885 0 c-487 0 -885 3 -885 6 0 4 29 36 65 72
36 35 65 68 65 73 0 5 389 9 913 9 l912 0 18 -87z m-309 -210 c-26 -49 -70
-126 -98 -171 l-51 -84 -750 1 -749 1 -28 27 -28 27 0 143 0 143 876 0 876 0
-48 -87z m90 15 c3 -13 10 -52 16 -88 6 -36 17 -90 25 -120 7 -30 19 -82 25
-115 16 -82 38 -188 55 -260 7 -33 18 -87 25 -120 6 -33 18 -85 25 -115 7 -30
18 -84 25 -120 6 -36 18 -92 25 -125 7 -33 19 -87 25 -120 6 -33 16 -78 22
-100 5 -22 13 -60 17 -85 4 -25 13 -63 19 -85 6 -22 18 -76 26 -120 9 -44 24
-120 35 -170 10 -49 18 -91 18 -92 -1 -1 -22 3 -47 7 -25 5 -65 9 -90 10 -81
1 -86 5 -100 73 -6 34 -17 80 -25 102 -7 22 -25 94 -40 160 -14 66 -33 143
-40 170 -8 28 -21 85 -30 129 -9 43 -20 87 -25 97 -6 10 -10 28 -10 42 0 13
-6 43 -14 68 -8 24 -19 71 -26 104 -7 33 -18 80 -25 105 -8 25 -19 72 -26 105
-6 33 -17 80 -24 105 -7 25 -18 72 -25 105 -7 33 -19 81 -27 107 -15 50 -16
48 44 143 7 11 22 38 33 60 12 22 27 49 33 60 7 11 23 39 36 63 28 47 39 52
45 20z m1626 -194 c0 -69 -18 -96 -80 -123 -54 -23 -118 -27 -184 -10 l-43 11
-11 62 c-7 35 -12 86 -12 114 l0 51 153 3 152 3 13 -29 c6 -15 12 -53 12 -82z
m-1862 -139 c1 -11 9 -46 17 -77 36 -138 45 -176 56 -228 6 -30 17 -75 24
-100 7 -25 18 -72 25 -105 7 -33 18 -80 25 -105 7 -25 18 -70 24 -100 7 -30
18 -80 26 -110 7 -30 20 -82 29 -115 8 -33 20 -82 26 -110 6 -27 17 -75 25
-105 51 -205 72 -306 67 -311 -4 -3 -52 -2 -107 2 -55 4 -171 7 -257 8 l-158
1 0 38 c0 20 6 75 14 122 60 351 74 497 57 567 -29 115 -43 171 -56 218 -8 28
-20 73 -26 100 -7 28 -16 56 -22 63 -7 9 -109 12 -448 12 l-438 0 -5 -57 c-7
-70 -22 -189 -42 -338 -23 -170 -33 -254 -40 -323 -7 -70 -19 -88 -27 -39 -14
82 -64 291 -87 363 -6 17 -10 39 -10 50 0 11 -6 40 -14 65 -8 24 -19 71 -26
104 -7 33 -18 80 -25 105 -7 25 -18 70 -24 100 -16 76 -39 166 -56 221 -8 26
-15 61 -15 78 l0 31 732 -2 c724 -3 733 -3 736 -23z m2140 -297 c26 -6 64 -22
84 -35 44 -27 52 -28 44 -8 -4 12 1 12 37 -2 49 -19 177 -102 177 -114 0 -5 4
-9 10 -9 28 0 250 -257 250 -289 0 -6 5 -11 10 -11 6 0 10 -6 10 -13 0 -37
-330 -53 -460 -23 -69 16 -176 57 -219 83 -84 52 -140 91 -170 118 -72 65
-131 130 -131 145 0 18 73 99 117 129 33 22 44 26 42 14 -3 -20 2 -24 15 -14
16 13 91 39 119 40 10 1 39 -4 65 -11z m-2388 -110 c0 -13 -6 -68 -14 -123
-21 -144 -44 -315 -56 -430 -6 -55 -18 -145 -25 -200 -8 -55 -19 -143 -25
-195 -6 -52 -18 -144 -25 -205 -8 -60 -17 -131 -21 -158 l-5 -47 -405 0 -404
0 0 28 c0 27 9 104 35 287 8 55 19 143 25 195 6 52 17 142 25 200 8 58 19 146
25 195 10 86 24 194 51 388 l12 87 404 0 403 0 0 -22z m55 -155 c9 -43 25
-100 34 -128 20 -62 19 -177 -2 -306 -9 -51 -21 -134 -27 -184 -6 -49 -18
-130 -25 -180 -14 -86 -28 -193 -40 -300 -6 -47 -9 -51 -43 -63 -70 -25 -86
-27 -79 -9 3 9 9 44 12 79 3 35 12 106 20 158 7 52 18 140 25 195 15 137 38
320 55 440 8 55 19 147 25 205 14 126 20 170 24 170 2 0 11 -35 21 -77z m2184
-176 c202 -124 415 -172 641 -143 63 8 127 19 142 25 29 11 30 10 55 -38 17
-31 17 -34 -9 -63 -13 -13 -48 -53 -78 -89 -136 -160 -322 -345 -476 -474 -32
-27 -60 -53 -62 -57 -2 -5 -10 -8 -18 -8 -8 0 -14 -4 -14 -8 0 -5 -33 -31 -72
-58 -40 -27 -74 -52 -76 -56 -2 -5 -8 -8 -14 -8 -5 0 -24 -10 -41 -23 -81 -57
-110 -69 -160 -65 -38 3 -40 4 -56 58 -9 30 -23 89 -30 130 -7 41 -17 95 -23
120 -35 156 -47 523 -24 695 12 87 49 245 61 266 3 4 42 -29 86 -72 45 -44
120 -103 168 -132z m1321 34 c0 -6 4 -11 9 -11 5 0 12 -8 15 -17 3 -10 13 -29
21 -43 17 -28 13 -129 -10 -290 -7 -52 -18 -133 -25 -180 -12 -90 -33 -196
-55 -270 -33 -115 -41 -139 -66 -195 -28 -60 -51 -95 -63 -95 -3 0 -6 32 -6
72 0 72 -20 205 -45 308 -8 30 -21 82 -29 115 -21 84 -55 185 -72 217 -8 14
-14 31 -14 37 0 6 -12 36 -26 67 -14 31 -22 59 -17 63 5 3 29 33 54 66 62 84
67 88 160 134 46 23 86 45 89 49 3 4 14 12 25 18 16 9 23 7 37 -12 10 -12 18
-27 18 -33z m-390 -124 c0 -7 -9 -18 -19 -24 -16 -10 -20 -9 -25 3 -5 12 12
26 42 33 1 1 2 -5 2 -12z m556 -212 c6 -11 16 -40 23 -65 7 -25 19 -63 26 -85
7 -22 18 -67 25 -100 6 -33 16 -78 21 -100 10 -41 38 -324 39 -382 l0 -33
-190 0 c-104 0 -190 2 -190 5 0 2 11 28 24 57 41 94 48 111 73 208 27 99 35
142 53 274 6 44 13 83 16 87 2 4 9 56 14 116 13 139 18 150 39 88 9 -27 21
-59 27 -70z m-586 4 c0 -9 7 -22 15 -29 8 -7 15 -21 15 -30 0 -10 6 -31 14
-47 18 -35 60 -171 75 -243 7 -30 18 -82 26 -115 16 -71 35 -216 35 -268 l0
-37 -542 1 c-299 1 -535 3 -525 6 9 2 17 8 17 12 0 4 10 13 23 18 28 14 187
133 263 198 169 144 290 265 503 504 63 70 80 77 81 30z m-2923 -466 c-9 -8
-155 -8 -164 1 -3 3 33 6 82 6 49 0 85 -3 82 -7z m1027 -210 c2 -10 8 -48 12
-85 l6 -68 -270 0 c-267 0 -270 0 -291 23 -70 75 -101 111 -101 119 0 4 62 9
138 9 75 1 180 5 232 9 52 3 134 7 182 8 75 2 87 0 92 -15z m204 -45 l123 -41
-3 -31 -3 -31 -124 -3 c-68 -1 -128 1 -132 5 -5 5 -12 42 -15 82 -7 70 -6 74
12 67 10 -4 74 -26 142 -48z m-872 -10 c69 -75 104 -120 104 -134 0 -12 -60
-14 -380 -14 -286 0 -380 3 -380 12 0 6 -10 31 -21 56 -12 24 -18 47 -13 52 5
4 35 17 67 29 44 16 83 21 160 22 56 1 147 5 202 9 218 15 217 15 261 -32z
m-725 -76 c9 -20 24 -55 33 -77 9 -22 21 -48 26 -57 6 -10 10 -22 10 -28 0 -7
-189 -10 -561 -10 l-560 0 97 105 98 105 420 0 421 -1 16 -37z m-961 -11 c0
-5 -3 -11 -7 -13 -5 -1 -48 -45 -97 -95 l-90 -93 638 0 638 0 -4 33 c-3 17 -8
40 -13 50 -7 16 15 17 379 17 l386 0 0 25 0 25 443 2 442 3 3 28 3 27 179 0
180 0 6 -25 c12 -47 37 -50 117 -10 l73 35 576 0 577 0 3 -32 c4 -46 33 -47
85 -3 l41 35 443 0 c243 0 440 -2 437 -5 -3 -3 -27 -10 -54 -14 -59 -11 -332
-68 -459 -96 -33 -8 -96 -21 -140 -29 -109 -21 -266 -53 -350 -71 -38 -8 -104
-22 -145 -30 -41 -8 -120 -25 -175 -37 l-100 -23 -2310 0 -2310 0 -3 153 -3
152 306 0 c178 0 305 -4 305 -9z m5658 -148 l-3 -148 -725 -2 c-659 -1 -719 0
-655 14 39 8 95 20 125 28 30 8 84 19 120 25 36 6 81 15 101 20 19 6 73 17
120 25 46 8 113 22 149 30 36 8 92 19 125 25 33 7 87 18 120 25 162 36 175 39
313 64 26 4 67 13 92 19 42 11 77 17 108 21 10 1 12 -32 10 -146z"/>
<path d="M4320 2598 c0 -23 8 -39 27 -55 24 -21 26 -29 24 -83 -5 -120 80
-212 239 -256 58 -17 209 -18 277 -2 67 16 149 71 188 126 28 41 30 50 30 131
0 67 -4 93 -18 115 -18 27 -19 27 -100 21 -45 -3 -122 -10 -172 -15 -49 -5
-160 -12 -245 -16 -167 -7 -210 0 -210 35 0 16 -18 31 -36 31 -2 0 -4 -14 -4
-32z m739 -79 c16 -47 13 -95 -9 -144 -25 -56 -50 -79 -120 -112 -49 -23 -68
-26 -165 -27 -103 -1 -175 11 -215 35 -8 5 -24 13 -36 18 -34 15 -91 89 -97
126 -3 19 -3 51 0 70 l6 35 121 1 c66 0 168 6 226 14 58 7 144 13 192 14 l86
1 11 -31z"/>
<path d="M4516 2418 c-38 -21 -2 -78 36 -57 24 13 23 55 -1 62 -10 2 -26 0
-35 -5z"/>
<path d="M3746 2422 c-11 -32 4 -53 33 -50 22 2 26 8 26 33 0 25 -4 31 -27 33
-19 2 -28 -2 -32 -16z"/>
<path d="M4170 1820 c0 -19 7 -20 115 -20 108 0 115 1 115 20 0 19 -7 20 -115
20 -108 0 -115 -1 -115 -20z"/>
</g>
</svg>
